<svg width="32" height="37" viewBox="0 0 32 37" fill="none" xmlns="http://www.w3.org/2000/svg">
<path d="M18.3073 22.4503L15.9984 18.4512H20.6162L18.3073 22.4503Z" fill="#FFF" fill-opacity="0.94"/>
<path d="M15.9984 18.4512L13.6895 14.452H18.3073L15.9984 18.4512Z" fill="#FFF" fill-opacity="0.94"/>
<path d="M13.6895 22.4503L11.3806 18.4512H15.9984L13.6895 22.4503Z" fill="#FFF" fill-opacity="0.94"/>
<path d="M11.3806 18.4512L13.6895 14.452L11.3812 10.4538L0 9.21624L6.76239 18.4538L11.3806 18.4512Z" fill="#FFF" fill-opacity="0.94"/>
<path d="M6.76239 18.4538L11.3812 26.4538L0 27.6914L6.76239 18.4538Z" fill="#FFF" fill-opacity="0.94"/>
<path d="M13.6895 22.4503L11.3812 26.4538L16 36.929L20.6188 26.4538L18.3073 22.4503H13.6895Z" fill="#FFF" fill-opacity="0.94"/>
<path d="M25.2377 18.4538L20.6188 26.4538L32 27.6914L25.2377 18.4538Z" fill="#FFF" fill-opacity="0.94"/>
<path d="M18.3073 14.4627L20.6162 18.4618L25.2375 18.4645L31.9999 9.22691L20.6187 10.4645L18.3073 14.4627Z" fill="#FFF" fill-opacity="0.94"/>
<path d="M16 0L11.3812 10.4752L20.6188 10.4752L16 0Z" fill="#FFF" fill-opacity="0.94"/>
</svg>
