<svg width="54" height="172" viewBox="0 0 54 172" fill="none" xmlns="http://www.w3.org/2000/svg">
<g clip-path="url(#clip0_140_2)">
<path d="M0 0H53.08V171.358H0V0Z" fill="#9BD4D7"/>
<path d="M20.0468 153.665V151.765H23.9348V147.672H20.0468V145.772H30.2778V147.672H25.6878V151.765H30.2778V153.665H20.0468ZM29.8978 142.236C29.5668 142.801 29.1138 143.233 28.5388 143.53C27.9638 143.827 27.3168 143.976 26.5948 143.976C25.8738 143.976 25.2258 143.827 24.6518 143.53C24.0833 143.239 23.6111 142.789 23.2918 142.236C22.9608 141.672 22.7948 141.004 22.7948 140.234C22.7948 139.464 22.9608 138.796 23.2918 138.232C23.6111 137.679 24.0833 137.229 24.6518 136.938C25.2258 136.641 25.8748 136.493 26.5948 136.493C27.3178 136.493 27.9638 136.641 28.5388 136.938C29.1073 137.229 29.5793 137.678 29.8978 138.232C30.2288 138.796 30.3948 139.464 30.3948 140.234C30.3948 141.004 30.2288 141.672 29.8978 142.236ZM28.1948 138.889C27.7598 138.559 27.2278 138.393 26.5938 138.393C25.9608 138.393 25.4278 138.559 24.9928 138.889C24.5598 139.221 24.3438 139.669 24.3438 140.235C24.3438 140.799 24.5608 141.248 24.9928 141.58C25.4278 141.911 25.9608 142.077 26.5938 142.077C27.2278 142.077 27.7598 141.911 28.1948 141.58C28.6298 141.248 28.8438 140.8 28.8438 140.235C28.8448 139.669 28.6298 139.221 28.1948 138.889ZM22.9108 134.852V133.039H24.0968C23.7127 132.773 23.3887 132.429 23.1458 132.03C22.9132 131.647 22.7914 131.207 22.7938 130.759C22.7938 130.077 22.9838 129.53 23.3638 129.114C23.7448 128.701 24.2958 128.493 25.0158 128.493H30.2778V130.305H25.5568C25.1378 130.305 24.8298 130.401 24.6358 130.59C24.4408 130.78 24.3438 131.037 24.3438 131.359C24.3438 131.661 24.4588 131.939 24.6938 132.192C24.9278 132.446 25.2708 132.65 25.7238 132.805C26.1778 132.961 26.7168 133.039 27.3398 133.039H30.2778V134.852H22.9108ZM29.8978 125.136C29.579 125.689 29.1071 126.139 28.5388 126.43C27.9638 126.727 27.3168 126.875 26.5948 126.875C25.8738 126.875 25.2258 126.727 24.6518 126.43C24.0835 126.138 23.6113 125.689 23.2918 125.136C22.9608 124.571 22.7948 123.904 22.7948 123.134C22.7948 122.363 22.9608 121.696 23.2918 121.131C23.6111 120.578 24.0834 120.129 24.6518 119.838C25.2258 119.541 25.8748 119.392 26.5948 119.392C27.3178 119.392 27.9638 119.541 28.5388 119.838C29.1138 120.135 29.5668 120.566 29.8978 121.131C30.2288 121.696 30.3948 122.363 30.3948 123.134C30.3958 123.903 30.2288 124.57 29.8978 125.136ZM28.1948 121.789C27.7598 121.458 27.2278 121.292 26.5938 121.292C25.9608 121.292 25.4278 121.458 24.9928 121.789C24.5598 122.12 24.3438 122.567 24.3438 123.134C24.3438 123.698 24.5608 124.147 24.9928 124.478C25.4278 124.81 25.9608 124.976 26.5938 124.976C27.2278 124.976 27.7598 124.81 28.1948 124.478C28.6298 124.147 28.8438 123.699 28.8438 123.134C28.8448 122.567 28.6298 122.12 28.1948 121.789ZM22.9108 117.75V115.938H24.1098C23.6908 115.673 23.3678 115.352 23.1378 114.972C22.9078 114.592 22.7928 114.188 22.7928 113.759C22.7928 113.487 22.8428 113.19 22.9388 112.867L24.6208 113.203C24.4827 113.432 24.4117 113.695 24.4158 113.963C24.4158 114.539 24.6768 115.011 25.1988 115.381C25.7198 115.751 26.5408 115.938 27.6598 115.938H30.2768V117.75H22.9108ZM29.8118 111.252C29.4208 111.763 28.9548 112.103 28.4088 112.268L27.6328 110.822C28.0138 110.684 28.3128 110.493 28.5258 110.245C28.7408 109.996 28.8468 109.701 28.8468 109.36C28.8554 109.129 28.797 108.901 28.6788 108.702C28.5668 108.527 28.3848 108.439 28.1308 108.439C27.9058 108.439 27.7248 108.544 27.5828 108.752C27.4408 108.962 27.2918 109.286 27.1368 109.725C27.1178 109.793 27.0788 109.895 27.0198 110.032C26.7958 110.597 26.5138 111.036 26.1718 111.347C25.8318 111.66 25.3928 111.814 24.8578 111.814C24.4768 111.814 24.1308 111.712 23.8188 111.508C23.5019 111.298 23.2455 111.008 23.0748 110.668C22.8842 110.295 22.7884 109.88 22.7958 109.461C22.7958 108.964 22.9008 108.512 23.1098 108.102C23.3208 107.694 23.6158 107.377 23.9958 107.153L24.9888 108.235C24.5588 108.527 24.3448 108.921 24.3448 109.419C24.3408 109.599 24.3948 109.776 24.4988 109.923C24.5424 109.989 24.602 110.043 24.6721 110.08C24.7422 110.117 24.8206 110.136 24.8998 110.135C25.0758 110.135 25.2378 110.032 25.3898 109.828C25.5398 109.623 25.7238 109.224 25.9368 108.629C26.1418 108.065 26.4108 107.628 26.7418 107.321C27.0738 107.013 27.4978 106.861 28.0128 106.861C28.7338 106.861 29.3118 107.09 29.7448 107.548C30.1778 108.006 30.3948 108.605 30.3948 109.345C30.3958 110.104 30.2008 110.741 29.8118 111.252ZM35.4808 17.006L30.6988 31.975H27.4328L24.8488 22.293L22.2648 31.975H18.9968L14.2148 17.006H17.9278L20.6008 27.282L23.1258 17.006H26.5708L29.0948 27.282L31.7688 17.006H35.4808ZM37.9778 27.163C39.4038 27.163 40.4738 28.231 40.4738 29.658C40.4738 31.083 39.4038 32.153 37.9778 32.153C36.5528 32.153 35.4838 31.083 35.4838 29.658C35.4828 28.231 36.5528 27.163 37.9778 27.163Z" fill="white"/>
</g>
<defs>
<clipPath id="clip0_140_2">
<rect width="53.08" height="171.358" fill="white"/>
</clipPath>
</defs>
</svg>
