<?xml version="1.0" encoding="utf-8"?>
<!-- Generator: Adobe Illustrator 28.2.0, SVG Export Plug-In . SVG Version: 6.00 Build 0)  -->
<svg version="1.2"
	 id="svg864" baseProfile="tiny-ps" xmlns:cc="http://creativecommons.org/ns#" xmlns:svg="http://www.w3.org/2000/svg" xmlns:inkscape="http://www.inkscape.org/namespaces/inkscape" xmlns:sodipodi="http://sodipodi.sourceforge.net/DTD/sodipodi-0.dtd" xmlns:rdf="http://www.w3.org/1999/02/22-rdf-syntax-ns#" xmlns:dc="http://purl.org/dc/elements/1.1/"
	 xmlns="http://www.w3.org/2000/svg" xmlns:xlink="http://www.w3.org/1999/xlink" viewBox="0 0 2834.6 2834.6"
	 style="enable-background:new 0 0 2834.6 2834.6;" xml:space="preserve">
<rect class="st0" width="2834.6" height="2834.6" fill="#FFFFFF" />
<g>
		<path id="path32" inkscape:flatsided="false" inkscape:randomized="0" inkscape:rounded="0" inkscape:transform-center-x="2.0443631e-05" inkscape:transform-center-y="16.519325" sodipodi:arg1="0.52359878" sodipodi:arg2="1.5707963" sodipodi:cx="557.1485" sodipodi:cy="-236.03876" sodipodi:r1="66.077454" sodipodi:r2="33.038727" sodipodi:sides="3" sodipodi:type="star" d="
		M1579.4,1698.1l-81.1-140.5l-81.1-140.5h162.2h162.2l-81.1,140.5L1579.4,1698.1z"/>
	
		<path id="path32-3" inkscape:flatsided="false" inkscape:randomized="0" inkscape:rounded="0" inkscape:transform-center-x="2.0443632e-05" inkscape:transform-center-y="16.519325" sodipodi:arg1="0.52359878" sodipodi:arg2="1.5707963" sodipodi:cx="442.69901" sodipodi:cy="-236.03876" sodipodi:r1="66.077454" sodipodi:r2="33.038727" sodipodi:sides="3" sodipodi:type="star" d="
		M1417.2,1417.1l-81.1-140.5l-81.1-140.5h162.2h162.2l-81.1,140.5L1417.2,1417.1z"/>
	
		<path id="path32-3-5" inkscape:flatsided="false" inkscape:randomized="0" inkscape:rounded="0" inkscape:transform-center-x="2.0443631e-05" inkscape:transform-center-y="16.519325" sodipodi:arg1="0.52359878" sodipodi:arg2="1.5707963" sodipodi:cx="499.92377" sodipodi:cy="-136.92258" sodipodi:r1="66.077454" sodipodi:r2="33.038727" sodipodi:sides="3" sodipodi:type="star" d="
		M1255,1698.1l-81.1-140.5l-81.1-140.5H1255h162.2l-81.1,140.5L1255,1698.1z"/>
	<path id="path923" inkscape:connector-curvature="0" d="M1092.8,1417.1l162.2-281l-162.2-280.9l-799.6-86.9l475.1,649
		L1092.8,1417.1z"/>
	<path id="path925" inkscape:connector-curvature="0" d="M768.3,1417.3l324.5,562l-799.6,86.9L768.3,1417.3z"/>
	<path id="path927" inkscape:connector-curvature="0" d="M1255,1698.1l-162.2,281.3l324.5,735.9l324.5-735.9l-162.4-281.3
		L1255,1698.1z"/>
	<path id="path929" inkscape:connector-curvature="0" d="M2066.3,1417.3l-324.5,562l799.6,86.9L2066.3,1417.3z"/>
	<path id="path931" inkscape:connector-curvature="0" d="M1579.4,1136.2l162.2,281l324.7,0.2l475.1-649l-799.6,86.9L1579.4,1136.2"
		/>
	<path id="path933" inkscape:connector-curvature="0" d="M1417.3,119.3l-324.5,735.9h649L1417.3,119.3z"/>
</g>
</svg>
