<?xml version="1.0" encoding="UTF-8" standalone="yes"?>
<svg version="1.2" baseProfile="tiny-ps" viewBox="0 0 2834.6 2834.6" xml:space="preserve" xmlns="http://www.w3.org/2000/svg">
  <title>bimi-svg-tiny-12-ps</title>
  <rect class="st0" width="2834.6" height="2834.6" fill="url(#SVGID_1_)"/>
  <g>
    <path id="path32" d="&#xD;&#xA;&#x9;&#x9;M1579.4,1698.1l-81.1-140.5l-81.1-140.5h162.2h162.2l-81.1,140.5L1579.4,1698.1z"/>
    <path id="path32-3" d="&#xD;&#xA;&#x9;&#x9;M1417.2,1417.1l-81.1-140.5l-81.1-140.5h162.2h162.2l-81.1,140.5L1417.2,1417.1z"/>
    <path id="path32-3-5" d="&#xD;&#xA;&#x9;&#x9;M1255,1698.1l-81.1-140.5l-81.1-140.5H1255h162.2l-81.1,140.5L1255,1698.1z"/>
    <path id="path923" d="M1092.8,1417.1l162.2-281l-162.2-280.9l-799.6-86.9l475.1,649&#xD;&#xA;&#x9;&#x9;L1092.8,1417.1z"/>
    <path id="path925" d="M768.3,1417.3l324.5,562l-799.6,86.9L768.3,1417.3z"/>
    <path id="path927" d="M1255,1698.1l-162.2,281.3l324.5,735.9l324.5-735.9l-162.4-281.3&#xD;&#xA;&#x9;&#x9;L1255,1698.1z"/>
    <path id="path929" d="M2066.3,1417.3l-324.5,562l799.6,86.9L2066.3,1417.3z"/>
    <path id="path931" d="M1579.4,1136.2l162.2,281l324.7,0.2l475.1-649l-799.6,86.9L1579.4,1136.2"/>
    <path id="path933" d="M1417.3,119.3l-324.5,735.9h649L1417.3,119.3z"/>
  </g>
</svg>